<?xml version="1.0" standalone="no"?>
<!DOCTYPE svg PUBLIC "-//W3C//DTD SVG 20010904//EN"
 "http://www.w3.org/TR/2001/REC-SVG-20010904/DTD/svg10.dtd">
<svg version="1.0" xmlns="http://www.w3.org/2000/svg"
 width="400.000000pt" height="320.000000pt" viewBox="0 0 400.000000 320.000000"
 preserveAspectRatio="xMidYMid meet">
<metadata>
Created by potrace 1.14, written by Peter Selinger 2001-2017
</metadata>
<g transform="translate(0.000000,320.000000) scale(0.100000,-0.100000)"
fill="#000000" stroke="none">
<path d="M1109 2645 c-336 -64 -611 -321 -685 -640 -27 -115 -25 -330 5 -439
80 -299 319 -528 631 -607 83 -21 347 -19 427 4 92 26 225 84 294 129 34 21
63 38 64 36 2 -2 7 -54 12 -117 10 -111 11 -116 42 -143 58 -52 119 -25 147
65 19 63 18 56 43 243 11 83 25 171 30 195 6 24 12 55 13 69 2 14 7 24 12 23
5 -2 10 -51 12 -110 22 -598 39 -719 104 -741 24 -9 31 -7 50 13 23 24 34 67
70 264 23 121 24 124 39 100 27 -42 69 -76 102 -83 39 -8 434 -5 399 2 -20 5
-17 7 20 13 25 3 -54 7 -175 8 -265 1 -274 4 -300 98 -21 78 -28 87 -58 91
-35 4 -49 -30 -70 -169 -23 -145 -57 -290 -67 -284 -12 7 -28 88 -35 180 -4
44 -8 96 -10 115 -2 19 -9 152 -14 295 -14 339 -16 353 -48 361 -15 4 -30 1
-38 -7 -16 -16 -40 -102 -50 -176 -4 -26 -13 -86 -21 -133 -7 -47 -21 -139
-29 -205 -17 -126 -53 -231 -77 -223 -21 7 -36 67 -42 173 -8 121 -16 154 -42
172 -18 12 -24 11 -45 -5 -63 -50 -271 -165 -329 -183 -84 -27 -253 -36 -357
-19 -283 45 -526 254 -620 535 -25 74 -27 92 -27 250 -1 165 0 172 31 260 37
108 66 160 130 240 106 131 263 233 423 276 122 33 287 33 390 1 92 -29 208
-86 300 -148 73 -49 100 -52 100 -10 0 53 -174 158 -350 211 -108 33 -288 42
-401 20z"/>
<path d="M1346 2263 c-2 -10 -21 -100 -42 -200 l-37 -183 -212 0 -211 0 -22
-92 c-12 -51 -22 -96 -22 -100 0 -5 94 -8 210 -8 116 0 210 -1 210 -2 0 -2
-16 -79 -35 -173 -19 -93 -35 -176 -35 -183 0 -10 19 -12 77 -10 l78 3 16 75
c9 41 27 121 40 178 l22 102 216 0 217 0 26 105 25 105 -213 0 c-250 0 -227
-18 -190 154 34 156 46 215 46 231 0 12 -17 15 -79 15 -67 0 -80 -3 -85 -17z"/>
</g>
</svg>
